<?xml version="1.0" encoding="utf-8"?>
<!-- Generator: Adobe Illustrator 26.3.1, SVG Export Plug-In . SVG Version: 6.00 Build 0)  -->
<svg version="1.1" id="Camada_1" xmlns="http://www.w3.org/2000/svg" xmlns:xlink="http://www.w3.org/1999/xlink" x="0px" y="0px"
	 viewBox="0 0 995.6 299.7" style="enable-background:new 0 0 995.6 299.7;" xml:space="preserve">
<style type="text/css">
	.st0{fill:#0EC4BB;}
	.st1{fill:#FFFFFF;}
</style>
<rect y="218.4" class="st0" width="995.6" height="81.3"/>
<path class="st1" d="M58.1,0v104H43.6V50l-7.3,25H21.8l-7.3-25.1v54H0V0h14.5l14.5,50.1L43.6,0H58.1z"/>
<path class="st1" d="M65.5,104V0H80v104H65.5z"/>
<path class="st1" d="M122.5,55.7h-3.2l11.9,48.2h-14.7l-11.1-48.2H102V104H87.5V0h35c4.8,0,8.7,3.9,8.7,8.6l0,0V47
	C131.2,51.8,127.3,55.7,122.5,55.7z M116.7,14.5H102v26.7h14.7L116.7,14.5z"/>
<path class="st1" d="M173.8,89.4h-18.3l-2.2,14.6h-14.7L154.4,0h20.6l15.8,104H176L173.8,89.4z M171.6,74.9L164.6,29l-6.9,45.9
	L171.6,74.9z"/>
<path class="st1" d="M264.4,29.1h-14.5V14.5h-14.6v74.9h14.6V67.6h14.5v27.6c0,4.8-3.9,8.7-8.7,8.7h-26.2c-4.8,0-8.7-3.9-8.7-8.7v0
	V8.6l0,0c0-4.8,3.9-8.6,8.7-8.6h26.2c4.8,0,8.7,3.9,8.7,8.7V29.1z"/>
<path class="st1" d="M315.5,8.7v86.6c0,4.8-3.9,8.7-8.7,8.7c0,0,0,0,0,0h-26.2c-4.8,0-8.7-3.9-8.7-8.7v0V8.6l0,0
	c0-4.8,3.9-8.6,8.7-8.6h26.2C311.6,0,315.5,3.9,315.5,8.7z M301,14.5h-14.6v74.9H301V14.5z"/>
<path class="st1" d="M381.1,0v104h-14.5V50l-7.3,25h-14.5l-7.3-25.1v54H323V0h14.5l14.5,50.1L366.6,0H381.1z"/>
<path class="st1" d="M432.1,8.7v86.6c0,4.8-3.9,8.7-8.7,8.7l0,0h-26.2c-4.8,0-8.7-3.9-8.7-8.7v0V8.6l0,0c0-4.8,3.9-8.6,8.7-8.6h26.2
	C428.3,0,432.1,3.9,432.1,8.7z M417.6,14.5H403v74.9h14.6L417.6,14.5z"/>
<path class="st1" d="M506,89.4V104h-43.6V0h14.5v89.4H506z"/>
<path class="st1" d="M557.1,8.7v86.6c0,4.8-3.9,8.7-8.7,8.7l0,0h-26.2c-4.8,0-8.7-3.9-8.7-8.7c0,0,0,0,0,0V8.6l0,0
	c0-4.8,3.9-8.6,8.7-8.6h26.2C553.2,0,557.1,3.9,557.1,8.7z M542.6,14.5H528v74.9h14.6L542.6,14.5z"/>
<path class="st1" d="M593.7,14.5h-14.6v18L605.6,59c1.6,1.6,2.6,3.9,2.6,6.2v30.1c0,4.8-3.9,8.7-8.7,8.7c0,0,0,0,0,0h-26.2
	c-4.8,0-8.6-3.8-8.7-8.6l0,0V75h14.5v14.4h14.6V67.6l-26.5-26.5c-1.7-1.6-2.6-3.9-2.6-6.2V8.6l0,0c0-4.8,3.9-8.6,8.7-8.6h26.2
	c4.8,0,8.7,3.9,8.7,8.7c0,0,0,0,0,0v18.9h-14.5V14.5z"/>
<path class="st1" d="M682.1,0v95.4c0,4.8-3.9,8.7-8.7,8.7l0,0h-26.2c-4.8,0-8.7-3.9-8.7-8.7v0V75H653v14.5h14.6V0H682.1z"/>
<path class="st1" d="M733.2,8.7v86.6c0,4.8-3.9,8.7-8.7,8.7h-26.2c-4.8,0-8.7-3.9-8.7-8.7v0V8.6l0,0c0-4.8,3.9-8.6,8.7-8.6h26.2
	C729.3,0,733.2,3.9,733.2,8.7z M718.7,14.5h-14.6v74.9h14.6V14.5z"/>
<path class="st1" d="M792.7,0L777,104h-20.6L740.7,0h14.7l11.3,75L778,0H792.7z"/>
<path class="st1" d="M814.7,14.5v26.7h20.5v14.5h-20.5v33.7h29.1V104h-43.6V14.5l0,0V0h43.7v14.5H814.7z"/>
<path class="st1" d="M894.8,0v104h-14.5l-14.6-52.2V104h-14.5V0h14.5l14.6,52.1V0H894.8z"/>
<path class="st1" d="M916.9,14.5v26.7h20.5v14.5h-20.5v33.7H946V104h-43.6V14.5l0,0V0H946v14.5H916.9z"/>
<path class="st1" d="M981.1,14.5h-14.6v18L993,59c1.6,1.6,2.6,3.9,2.6,6.2v30.1c0,4.8-3.9,8.7-8.7,8.7l0,0h-26.2
	c-4.8,0-8.6-3.8-8.7-8.6l0,0V75h14.5v14.4h14.6V67.6l-26.5-26.5c-1.6-1.6-2.6-3.9-2.5-6.2V8.6l0,0c0-4.8,3.9-8.6,8.7-8.6h26.2
	c4.8,0,8.7,3.9,8.7,8.7c0,0,0,0,0,0v18.9h-14.5V14.5z"/>
<path class="st0" d="M9.5,136.7v17.4h13.4v9.5H9.5v22h19v9.5H0v-58.4l0,0v-9.5h28.5v9.5H9.5z"/>
<path class="st0" d="M53.9,136.7h-9.5v11.7l17.3,17.3c1.1,1.1,1.7,2.5,1.7,4v19.7c0,3.1-2.5,5.7-5.7,5.7H40.5
	c-3.1,0-5.6-2.5-5.7-5.6l0,0v-13.2h9.5v9.4h9.5v-14.3l-17.3-17.3c-1.1-1.1-1.7-2.5-1.7-4v-17.2l0,0c0-3.1,2.6-5.6,5.7-5.6h17.2
	c3.1,0,5.7,2.5,5.7,5.7v12.4h-9.5V136.7z"/>
<path class="st0" d="M99.2,136.7h-9.5v58.4h-9.5v-58.4h-9.5v-9.5h28.5V136.7z"/>
<path class="st0" d="M123.6,185.7h-11.9l-1.4,9.5h-9.6l10.3-67.9h13.4l10.3,67.9H125L123.6,185.7z M122.1,176.2l-4.5-30l-4.5,30
	H122.1z"/>
<path class="st0" d="M170.4,127.2v67.9h-9.5l-9.5-34v34h-9.5v-67.9h9.5l9.5,34.1v-34.1H170.4z"/>
<path class="st0" d="M214,146.2v-9.5h-9.5v49h9.5v-20.5h-4.8v-9.5h14.2v33.8c0,3.1-2.5,5.7-5.7,5.7c0,0,0,0,0,0h-17.1
	c-3.1,0-5.7-2.5-5.7-5.7c0,0,0,0,0,0v-56.6l0,0c0-3.1,2.6-5.6,5.7-5.6h17.1c3.1,0,5.7,2.5,5.7,5.7v13.3H214z"/>
<path class="st0" d="M253.7,185.7h-11.9l-1.4,9.5h-9.6l10.3-67.9h13.4l10.3,67.9h-9.6L253.7,185.7z M252.3,176.2l-4.5-30l-4.5,30
	H252.3z"/>
<path class="st0" d="M300.5,127.2v67.9h-9.5l-9.5-34v34H272v-67.9h9.5l9.5,34.1v-34.1H300.5z"/>
<path class="st0" d="M330.8,185.7h-11.9l-1.4,9.5h-9.6l10.3-67.9h13.4l10.3,67.9h-9.6L330.8,185.7z M329.4,176.2l-4.5-30l-4.5,30
	H329.4z"/>
<path class="st0" d="M377.6,127.2v67.9h-9.5l-9.5-34v34h-9.5v-67.9h9.5l9.5,34.1v-34.1H377.6z"/>
<path class="st0" d="M413.5,132.9v56.6c0,3.1-2.5,5.7-5.7,5.7H385v-67.9h22.8C410.9,127.3,413.4,129.8,413.5,132.9z M404,136.7h-9.5
	v49h9.5V136.7z"/>
<path class="st0" d="M449.3,132.9v56.6c0,3.1-2.5,5.7-5.7,5.7c0,0,0,0,0,0h-17.1c-3.1,0-5.7-2.5-5.7-5.7c0,0,0,0,0,0v-56.6l0,0
	c0-3.1,2.6-5.6,5.7-5.6h17.1C446.7,127.2,449.3,129.8,449.3,132.9z M439.8,136.7h-9.5v49h9.5V136.7z"/>
<path class="st0" d="M511.9,127.2v67.9h-9.5v-35.3l-4.8,16.4h-9.5l-4.8-16.4v35.3h-9.5v-67.9h9.5l9.5,32.8l9.5-32.7L511.9,127.2z"/>
<path class="st0" d="M519.1,195.2v-67.9h9.5v67.9H519.1z"/>
<path class="st0" d="M564.4,185.7v9.5h-28.5v-67.9h9.5v58.5L564.4,185.7z"/>
<path class="st0" d="M581.2,136.7v17.4h13.4v9.5h-13.4v22h19v9.5h-28.5v-58.4l0,0v-9.5h28.5v9.5H581.2z"/>
<path class="st0" d="M625.6,136.7h-9.5v11.7l17.3,17.3c1.1,1.1,1.7,2.5,1.7,4v19.7c0,3.1-2.5,5.7-5.7,5.7h-17.1
	c-3.1,0-5.6-2.5-5.7-5.6l0,0v-13.2h9.5v9.4h9.5v-14.3l-17.3-17.3c-1.1-1.1-1.7-2.5-1.7-4v-17.2l0,0c0-3.1,2.6-5.6,5.7-5.6h17.1
	c3.1,0,5.7,2.5,5.7,5.7v12.4h-9.5V136.7z"/>
<path class="st0" d="M688.2,132.9v56.6c0,3.1-2.5,5.7-5.7,5.7h-22.8v-67.9h22.8C685.7,127.2,688.2,129.8,688.2,132.9z M678.7,136.7
	h-9.5v49h9.5V136.7z"/>
<path class="st0" d="M705,136.7v17.4h13.4v9.5H705v22h19v9.5h-28.5v-58.4l0,0v-9.5h28.5v9.5H705z"/>
<path class="st0" d="M777.1,132.9v56.6c0,3.1-2.5,5.7-5.7,5.7h-22.8v-67.9h22.8C774.6,127.2,777.1,129.8,777.1,132.9z M767.6,136.7
	h-9.5v49h9.5V136.7z"/>
<path class="st0" d="M813,132.9v56.6c0,3.1-2.5,5.7-5.7,5.7c0,0,0,0,0,0h-17.2c-3.1,0-5.7-2.5-5.7-5.7c0,0,0,0,0,0v-56.6l0,0
	c0-3.1,2.6-5.6,5.7-5.6h17.1C810.4,127.2,813,129.7,813,132.9C813,132.9,813,132.9,813,132.9z M803.5,136.7H794v49h9.5V136.7z"/>
<path class="st0" d="M848.8,185.7v9.5h-28.5v-67.9h9.5v58.5L848.8,185.7z"/>
<path class="st0" d="M878.1,185.7h-11.9l-1.4,9.5h-9.6l10.3-67.9h13.4l10.3,67.9h-9.6L878.1,185.7z M876.7,176.2l-4.5-30l-4.5,30
	H876.7z"/>
<path class="st0" d="M919.3,163.6h-2.1l7.8,31.5h-9.6l-7.2-31.5h-2.2v31.5h-9.5v-67.9h22.9c3.1,0,5.7,2.5,5.7,5.6l0,0V158
	C924.9,161.1,922.4,163.6,919.3,163.6z M915.5,136.7h-9.6v17.4h9.6V136.7z"/>
<path class="st0" d="M941.7,136.7v17.4h13.4v9.5h-13.4v22h19v9.5h-28.5v-58.4l0,0v-9.5h28.5v9.5H941.7z"/>
<path class="st0" d="M986.1,136.7h-9.5v11.7l17.3,17.3c1.1,1.1,1.7,2.5,1.7,4v19.7c0,3.1-2.5,5.7-5.7,5.7h-17.1
	c-3.1,0-5.6-2.5-5.7-5.6l0,0v-13.2h9.5v9.4h9.5v-14.3l-17.3-17.3c-1.1-1.1-1.7-2.5-1.7-4v-17.2l0,0c0-3.1,2.6-5.6,5.7-5.6h17.1
	c3.1,0,5.7,2.5,5.7,5.7v12.4h-9.5L986.1,136.7z"/>
<path class="st1" d="M35.2,241.4h-6.9v8.5l12.5,12.5c0.8,0.8,1.2,1.8,1.2,2.9v14.2c0,2.3-1.8,4.1-4.1,4.1H25.6c-2.2,0-4.1-1.8-4.1-4
	l0,0v-9.6h6.8v6.8h6.9v-10.3l-12.5-12.5c-0.8-0.8-1.2-1.8-1.2-2.9v-12.4l0,0c0-2.3,1.8-4.1,4.1-4.1h12.4c2.3,0,4.1,1.8,4.1,4.1l0,0
	v8.9h-6.8V241.4z"/>
<path class="st1" d="M66.1,238.6v40.8c0,2.3-1.8,4.1-4.1,4.1H49.6c-2.3,0-4.1-1.8-4.1-4.1v-40.8l0,0c0-2.2,1.9-4,4.1-4H62
	C64.2,234.6,66.1,236.4,66.1,238.6z M59.3,241.4h-6.9v35.3h6.9L59.3,241.4z"/>
<path class="st1" d="M90.2,276.7v6.8H69.6v-49h6.8v42.1L90.2,276.7z"/>
<path class="st1" d="M114.2,238.6v40.8c0,2.3-1.8,4.1-4.1,4.1H97.8c-2.3,0-4.1-1.8-4.1-4.1v-40.8l0,0c0.1-2.2,1.9-4,4.1-4h12.4
	C112.4,234.6,114.2,236.4,114.2,238.6z M107.4,241.4h-6.9v35.3h6.9V241.4z"/>
<path class="st1" d="M149.1,238.6v18.1c0,2.3-1.8,4.1-4.1,4.1h-9.7v22.7h-6.8v-49H145C147.3,234.5,149.1,236.3,149.1,238.6
	L149.1,238.6z M142.2,241.4h-6.9v12.6h6.9V241.4z"/>
<path class="st1" d="M173.1,238.6v40.8c0,2.3-1.8,4.1-4.1,4.1h-12.4c-2.3,0-4.1-1.8-4.1-4.1v-40.8l0,0c0-2.2,1.9-4,4.1-4H169
	C171.2,234.6,173.1,236.4,173.1,238.6z M166.3,241.4h-6.9v35.3h6.9V241.4z"/>
<path class="st1" d="M193.1,260.8h-1.5l5.6,22.7h-6.9l-5.2-22.7h-1.6v22.7h-6.8v-49h16.5c2.3,0,4.1,1.8,4.1,4.1l0,0v18.1
	C197.2,258.9,195.4,260.8,193.1,260.8C193.1,260.8,193.1,260.8,193.1,260.8z M190.4,241.4h-6.9v12.6h6.9V241.4z"/>
<path class="st1" d="M235.9,234.5l-7.4,49h-9.7l-7.4-49h6.9l5.3,35.3l5.3-35.3H235.9z"/>
<path class="st1" d="M246.3,241.4v12.6h9.7v6.8h-9.7v15.9H260v6.8h-20.6v-42.1l0,0v-6.8H260v6.8H246.3z"/>
<path class="st1" d="M280,260.8h-1.5l5.6,22.7h-6.9l-5.2-22.7h-1.6v22.7h-6.8v-49H280c2.2,0,4.1,1.8,4.1,4.1l0,0v18.1
	C284.1,258.9,282.3,260.7,280,260.8C280,260.8,280,260.8,280,260.8z M277.3,241.4h-6.9v12.6h6.9V241.4z"/>
<path class="st1" d="M322.8,234.5l-7.4,49h-9.7l-7.4-49h6.9l5.3,35.3l5.3-35.3L322.8,234.5z"/>
<path class="st1" d="M326.3,283.5v-49h6.8v49H326.3z"/>
<path class="st1" d="M357.2,238.6v40.8c0,2.3-1.8,4.1-4.1,4.1h-16.5v-49h16.5C355.3,234.5,357.2,236.3,357.2,238.6
	C357.2,238.6,357.2,238.6,357.2,238.6z M350.3,241.4h-6.9v35.3h6.9V241.4z"/>
<path class="st1" d="M367.5,241.4v12.6h9.7v6.8h-9.7v15.9h13.7v6.8h-20.5v-42.1l0,0v-6.8h20.6v6.8H367.5z"/>
<path class="st1" d="M405.3,238.6v40.8c0,2.3-1.8,4.1-4.1,4.1c0,0,0,0,0,0h-12.4c-2.3,0-4.1-1.8-4.1-4.1c0,0,0,0,0,0v-40.8l0,0
	c0-2.2,1.9-4,4.1-4h12.4C403.5,234.6,405.3,236.4,405.3,238.6z M398.5,241.4h-6.9v35.3h6.9V241.4z"/>
<path class="st1" d="M422.6,241.4h-6.9v8.5l12.5,12.5c0.8,0.8,1.2,1.8,1.2,2.9v14.2c0,2.3-1.8,4.1-4.1,4.1h-12.4
	c-2.2,0-4.1-1.8-4.1-4l0,0v-9.6h6.8v6.8h6.9v-10.3l-12.5-12.5c-0.8-0.8-1.2-1.8-1.2-2.9v-12.4l0,0c0-2.2,1.8-4.1,4.1-4.1h12.4
	c2.3,0,4.1,1.8,4.1,4.1v8.9h-6.8V241.4z"/>
<path class="st1" d="M450.5,241.4v12.6h9.7v6.8h-9.7v15.9h13.7v6.8h-20.5v-42.1l0,0v-6.8h20.6v6.8H450.5z"/>
<path class="st1" d="M488.2,234.5v49h-6.8l-6.9-24.5v24.5h-6.8v-49h6.8l6.9,24.5v-24.6H488.2z"/>
<path class="st1" d="M516.2,241.4h-6.9v8.5l12.5,12.5c0.8,0.8,1.2,1.8,1.2,2.9v14.2c0,2.3-1.8,4.1-4.1,4.1l0,0h-12.4
	c-2.2,0-4.1-1.8-4.1-4l0,0v-9.6h6.8v6.8h6.9v-10.3l-12.5-12.5c-0.8-0.8-1.2-1.8-1.2-2.9v-12.4l0,0c0-2.2,1.8-4.1,4.1-4.1h12.4
	c2.3,0,4.1,1.8,4.1,4.1v8.9h-6.8V241.4z"/>
<path class="st1" d="M547.1,234.5v44.9c0,2.3-1.8,4.1-4.1,4.1l0,0h-12.4c-2.3,0-4.1-1.8-4.1-4.1v-44.9h6.8v42.1h6.9v-42.1H547.1z"/>
<path class="st1" d="M564.3,241.4h-6.9v8.5l12.5,12.5c0.8,0.8,1.2,1.8,1.2,2.9v14.2c0,2.3-1.8,4.1-4.1,4.1l0,0h-12.4
	c-2.2,0-4.1-1.8-4.1-4l0,0v-9.6h6.8v6.8h6.9v-10.3l-12.5-12.5c-0.8-0.8-1.2-1.8-1.2-2.9v-12.4l0,0c0-2.2,1.8-4.1,4.1-4.1h12.4
	c2.3,0,4.1,1.8,4.1,4.1v8.9h-6.8V241.4z"/>
<path class="st1" d="M606,241.4h-6.9v42.1h-6.8v-42.1h-6.9v-6.8H606V241.4z"/>
<path class="st1" d="M616.3,241.4v12.6h9.7v6.8h-9.7v15.9H630v6.8h-20.5v-42.1l0,0v-6.8h20.6v6.8H616.3z"/>
<path class="st1" d="M654.1,276.7v6.8h-20.5v-49h6.8v42.1L654.1,276.7z"/>
<path class="st1" d="M664.5,241.4v12.6h9.7v6.8h-9.7v15.9h13.7v6.8h-20.5v-42.1l0,0v-6.8h20.6v6.8H664.5z"/>
<path class="st1" d="M688.6,241.4v12.6h9.7v6.8h-9.7v22.7h-6.8v-42.1l0,0v-6.8h20.6v6.8H688.6z"/>
<path class="st1" d="M726.3,238.6v40.8c0,2.3-1.8,4.1-4.1,4.1h-12.4c-2.3,0-4.1-1.8-4.1-4.1c0,0,0,0,0,0v-40.8l0,0
	c0.1-2.2,1.9-4,4.1-4h12.4C724.5,234.6,726.3,236.4,726.3,238.6z M719.5,241.4h-6.9v35.3h6.9V241.4z"/>
<path class="st1" d="M750.4,234.5v49h-6.8l-6.9-24.5v24.5h-6.8v-49h6.8l6.9,24.5v-24.6H750.4z"/>
<path class="st1" d="M774.5,238.6v40.8c0,2.3-1.8,4.1-4.1,4.1H758c-2.3,0-4.1-1.8-4.1-4.1c0,0,0,0,0,0v-40.8l0,0
	c0.1-2.2,1.9-4,4.1-4h12.4C772.6,234.6,774.5,236.4,774.5,238.6z M767.7,241.4h-6.9v35.3h6.9V241.4z"/>
<path class="st1" d="M791.7,241.4h-6.9v8.5l12.5,12.5c0.8,0.8,1.2,1.8,1.2,2.9v14.2c0,2.3-1.8,4.1-4.1,4.1l0,0h-12.4
	c-2.2,0-4.1-1.8-4.1-4l0,0v-9.6h6.8v6.8h6.9v-10.3l-12.5-12.5c-0.8-0.8-1.2-1.8-1.2-2.9v-12.4l0,0c0-2.2,1.8-4.1,4.1-4.1h12.4
	c2.3,0,4.1,1.8,4.1,4.1v8.9h-6.8L791.7,241.4z"/>
<path class="st1" d="M840.2,234.5v49h-6.8V258l-3.4,11.8h-6.8l-3.4-11.8v25.5h-6.8v-49h6.8l6.8,23.6l6.9-23.6L840.2,234.5z"/>
<path class="st1" d="M864.2,238.6v40.8c0,2.3-1.8,4.1-4.1,4.1l0,0h-12.4c-2.3,0-4.1-1.8-4.1-4.1v-40.8l0,0c0-2.2,1.9-4,4.1-4h12.3
	C862.4,234.6,864.2,236.4,864.2,238.6z M857.4,241.4h-6.9v35.3h6.9V241.4z"/>
<path class="st1" d="M892.3,234.5l-7.4,49h-9.7l-7.4-49h6.9l5.3,35.3l5.3-35.3L892.3,234.5z"/>
<path class="st1" d="M895.7,283.5v-49h6.8v49H895.7z"/>
<path class="st1" d="M926.7,276.7v6.8h-20.6v-49h6.8v42.1L926.7,276.7z"/>
<path class="st1" d="M937,241.4v12.6h9.7v6.8H937v15.9h13.7v6.8h-20.5v-42.1l0,0v-6.8h20.6v6.8H937z"/>
<path class="st1" d="M967.3,241.4h-6.9v8.5l12.5,12.5c0.8,0.8,1.2,1.8,1.2,2.9v14.2c0,2.3-1.8,4.1-4.1,4.1h-12.4
	c-2.2,0-4.1-1.8-4.1-4l0,0v-9.6h6.8v6.8h6.9v-10.3l-12.5-12.5c-0.8-0.8-1.2-1.8-1.2-2.9v-12.4l0,0c0-2.3,1.8-4.1,4.1-4.1H970
	c2.3,0,4.1,1.8,4.1,4.1v8.9h-6.8L967.3,241.4z"/>
</svg>
